<?xml version="1.0" encoding="UTF-8" standalone="no"?>
<!DOCTYPE svg PUBLIC "-//W3C//DTD SVG 1.1//EN" "http://www.w3.org/Graphics/SVG/1.1/DTD/svg11.dtd">
<!-- Generated by Microsoft Visio, SVG Export SessionState.svg Page-1 -->
<svg xmlns="http://www.w3.org/2000/svg" xmlns:xlink="http://www.w3.org/1999/xlink" xmlns:ev="http://www.w3.org/2001/xml-events"
		width="11in" height="8.5in" viewBox="0 0 792 612" xml:space="preserve" color-interpolation-filters="sRGB" class="st11">
	<style type="text/css">
	<![CDATA[
		.st1 {visibility:visible}
		.st2 {fill:#5b9bd5;fill-opacity:0.22;filter:url(#filter_2);stroke:#5b9bd5;stroke-opacity:0.22}
		.st3 {fill:#5b9bd5;stroke:#c7c8c8;stroke-width:0.25}
		.st4 {fill:#feffff;font-family:Calibri;font-size:1.5em}
		.st5 {marker-end:url(#mrkr4-24);stroke:#5b9bd5;stroke-linecap:round;stroke-linejoin:round;stroke-width:4.5}
		.st6 {fill:#5b9bd5;fill-opacity:1;stroke:#5b9bd5;stroke-opacity:1;stroke-width:0.64102564102564}
		.st7 {fill:#ffffff;stroke:none;stroke-linecap:butt;stroke-width:7.2}
		.st8 {fill:#4f87bb;font-family:Calibri;font-size:1.5em}
		.st9 {marker-start:url(#mrkr4-66);stroke:#5b9bd5;stroke-linecap:round;stroke-linejoin:round;stroke-width:4.5}
		.st10 {fill:#4f88bb;font-family:Calibri;font-size:1.5em}
		.st11 {fill:none;fill-rule:evenodd;font-size:12px;overflow:visible;stroke-linecap:square;stroke-miterlimit:3}
	]]>
	</style>

	<defs id="Markers">
		<g id="lend4">
			<path d="M 2 1 L 0 0 L 2 -1 L 2 1 " style="stroke:none"/>
		</g>
		<marker id="mrkr4-24" class="st6" refX="-3.12" orient="auto" markerUnits="strokeWidth" overflow="visible">
			<use xlink:href="#lend4" transform="scale(-1.56,-1.56) "/>
		</marker>
		<marker id="mrkr4-66" class="st6" refX="3.04" orient="auto" markerUnits="strokeWidth" overflow="visible">
			<use xlink:href="#lend4" transform="scale(1.56) "/>
		</marker>
	</defs>
	<defs id="Filters">
		<filter id="filter_2">
			<feGaussianBlur stdDeviation="2"/>
		</filter>
	</defs>
	<g>
		<title>Page-1</title>
		<g id="shape21-1" transform="translate(324,-463.5)">
			<title>Square</title>
			<desc>CREATED</desc>
			<g id="shadow21-2" transform="matrix(1,0,0,1,0.345598,1.97279)" class="st1">
				<rect x="0" y="504" width="108" height="108" class="st2"/>
			</g>
			<rect x="0" y="504" width="108" height="108" class="st3"/>
			<text x="20.4" y="563.4" class="st4">CREATED</text>		</g>
		<g id="shape22-7" transform="translate(324,-261)">
			<title>Square.22</title>
			<desc>PENDING</desc>
			<g id="shadow22-8" transform="matrix(1,0,0,1,0.345598,1.97279)" class="st1">
				<rect x="0" y="504" width="108" height="108" class="st2"/>
			</g>
			<rect x="0" y="504" width="108" height="108" class="st3"/>
			<text x="19.85" y="563.4" class="st4">PENDING</text>		</g>
		<g id="shape24-13" transform="translate(324,-54)">
			<title>Square.24</title>
			<desc>READY</desc>
			<g id="shadow24-14" transform="matrix(1,0,0,1,0.345598,1.97279)" class="st1">
				<rect x="0" y="504" width="108" height="108" class="st2"/>
			</g>
			<rect x="0" y="504" width="108" height="108" class="st3"/>
			<text x="29.59" y="563.4" class="st4">READY</text>		</g>
		<g id="shape8-19" transform="translate(423,-517.5)">
			<title>Dynamic connector</title>
			<desc>READY</desc>
			<path d="M9 612 L180 612 L180 1021.5 L23.04 1021.5" class="st5"/>
			<rect x="142.132" y="805.95" width="75.7354" height="21.5999" class="st7"/>
			<text x="142.13" y="822.15" class="st8">READY</text>		</g>
		<g id="shape10-27" transform="translate(369,-463.5)">
			<title>Dynamic connector.10</title>
			<desc>MESSAGE</desc>
			<path d="M9 612 L9 692.46" class="st5"/>
			<rect x="-40.0957" y="648.45" width="98.1914" height="21.5999" class="st7"/>
			<text x="-40.1" y="664.65" class="st8">MESSAGE</text>		</g>
		<g id="shape23-34" transform="translate(72,-261)">
			<title>Square.23</title>
			<desc>ERROR</desc>
			<g id="shadow23-35" transform="matrix(1,0,0,1,0.345598,1.97279)" class="st1">
				<rect x="0" y="504" width="108" height="108" class="st2"/>
			</g>
			<rect x="0" y="504" width="108" height="108" class="st3"/>
			<text x="28.99" y="563.4" class="st4">ERROR</text>		</g>
		<g id="shape13-40" transform="translate(324,-517.5)">
			<title>Dynamic connector.13</title>
			<desc>ERROR</desc>
			<path d="M0 612 L-198 612 L-198 746.46" class="st5"/>
			<rect x="-211.72" y="601.2" width="76.9395" height="21.5999" class="st7"/>
			<text x="-211.72" y="617.4" class="st8">ERROR</text>		</g>
		<g id="shape14-47" transform="translate(324,-306)">
			<title>Dynamic connector.14</title>
			<desc>ERROR</desc>
			<path d="M0 603 L-129.96 603" class="st5"/>
			<rect x="-110.47" y="592.2" width="76.9395" height="21.5999" class="st7"/>
			<text x="-110.47" y="608.4" class="st8">ERROR</text>		</g>
		<g id="shape28-54" transform="translate(1017,351) rotate(90)">
			<title>Sheet.28</title>
			<desc>READY</desc>
			<path d="M0 612 L84.96 612" class="st5"/>
			<rect x="-636.368" y="47.7002" width="75.7354" height="21.5999" transform="rotate(-90)" class="st7"/>
			<text x="-636.37" y="63.9" transform="rotate(-90)" class="st8">READY</text>		</g>
		<g id="shape29-61" transform="translate(963,351) rotate(90)">
			<title>Sheet.29</title>
			<desc>MESSAGE</desc>
			<path d="M13.68 612 L14.04 612 L99 612" class="st9"/>
			<rect x="-676.846" y="25.2002" width="98.1914" height="21.5999" transform="rotate(-90)" class="st7"/>
			<text x="-676.85" y="41.4" transform="rotate(-90)" class="st8">MESSAGE</text>		</g>
		<g id="shape30-69" transform="translate(423,-351)">
			<title>Dynamic connector.30</title>
			<desc>MESSAGE</desc>
			<path d="M9 612 L69.48 612 L69.48 684 L23.04 684" class="st5"/>
			<rect x="20.3843" y="637.2" width="98.1914" height="21.5999" class="st7"/>
			<text x="20.38" y="653.4" class="st10">MESSAGE</text>		</g>
	</g>
</svg>
